<svg width="48" height="48" fill="none" xmlns="http://www.w3.org/2000/svg"><path d="M15.68 2.352a2.8 2.8 0 10-5.408 1.45l.724 2.704a2.8 2.8 0 005.41-1.45l-.725-2.704zM3.802 10.272a2.8 2.8 0 00-1.45 5.409l2.705.725a2.8 2.8 0 101.45-5.41l-2.705-.724zM28.48 8.68a2.8 2.8 0 00-3.96-3.96L22.54 6.7a2.8 2.8 0 103.96 3.96l1.98-1.98zM8.68 28.48l1.98-1.98a2.8 2.8 0 10-3.96-3.96l-1.98 1.98a2.8 2.8 0 003.96 3.96zM17.64 14A2.8 2.8 0 0014 17.64l11.2 28a2.8 2.8 0 005.105.212l3.862-7.725 8.453 8.453a2.8 2.8 0 103.96-3.96l-8.453-8.453 7.725-3.863a2.8 2.8 0 00-.212-5.104l-28-11.2z" fill="#FF7500"/></svg>